<svg xmlns="http://www.w3.org/2000/svg" xmlns:xlink="http://www.w3.org/1999/xlink" width="2000" zoomAndPan="magnify" viewBox="0 0 1500 1499.999933" height="2000" preserveAspectRatio="xMidYMid meet" version="1.0"><defs><g/><clipPath id="9426075001"><path d="M 679 479.589844 L 956 479.589844 L 956 835 L 679 835 Z M 679 479.589844 " clip-rule="nonzero"/></clipPath><clipPath id="60be0f059a"><rect x="0" width="316" y="0" height="196"/></clipPath></defs><rect x="-150" width="1800" fill="#ffffff" y="-149.999993" height="1799.99992" fill-opacity="1"/><rect x="-150" width="1800" fill="#191919" y="-149.999993" height="1799.99992" fill-opacity="1"/><path fill="#cb6ce6" d="M 527.683594 834.679688 C 524.472656 834.671875 521.277344 834.457031 518.097656 834.023438 C 514.917969 833.59375 511.777344 832.953125 508.683594 832.105469 C 505.589844 831.257812 502.5625 830.207031 499.605469 828.957031 C 496.652344 827.703125 493.792969 826.261719 491.027344 824.628906 C 488.265625 822.996094 485.621094 821.1875 483.097656 819.203125 C 480.578125 817.21875 478.195312 815.074219 475.960938 812.773438 C 473.722656 810.472656 471.648438 808.03125 469.734375 805.453125 C 467.824219 802.875 466.089844 800.183594 464.539062 797.375 C 462.984375 794.566406 461.625 791.664062 460.457031 788.675781 C 459.289062 785.6875 458.324219 782.632812 457.566406 779.511719 C 456.804688 776.394531 456.253906 773.242188 455.914062 770.046875 C 455.574219 766.855469 455.445312 763.65625 455.535156 760.449219 C 455.621094 757.238281 455.917969 754.050781 456.429688 750.882812 C 456.941406 747.714844 457.660156 744.59375 458.585938 741.519531 C 459.511719 738.445312 460.636719 735.449219 461.964844 732.523438 C 463.289062 729.601562 464.804688 726.78125 466.503906 724.058594 L 596.558594 516.367188 C 597.183594 515.363281 597.835938 514.378906 598.511719 513.40625 C 599.1875 512.4375 599.890625 511.484375 600.613281 510.546875 C 601.335938 509.613281 602.082031 508.695312 602.847656 507.796875 C 603.617188 506.894531 604.40625 506.015625 605.21875 505.15625 C 606.027344 504.292969 606.859375 503.453125 607.714844 502.632812 C 608.566406 501.8125 609.4375 501.015625 610.328125 500.238281 C 611.222656 499.460938 612.132812 498.707031 613.0625 497.972656 C 613.988281 497.242188 614.9375 496.53125 615.898438 495.847656 C 616.863281 495.160156 617.84375 494.5 618.839844 493.863281 C 619.835938 493.222656 620.847656 492.609375 621.871094 492.023438 C 622.898438 491.433594 623.9375 490.871094 624.992188 490.335938 C 626.046875 489.796875 627.113281 489.285156 628.191406 488.800781 C 629.269531 488.316406 630.359375 487.859375 631.460938 487.429688 C 632.5625 486.996094 633.675781 486.59375 634.796875 486.214844 C 635.917969 485.839844 637.046875 485.492188 638.183594 485.167969 C 639.324219 484.847656 640.46875 484.554688 641.621094 484.289062 C 642.773438 484.027344 643.933594 483.789062 645.097656 483.582031 C 646.261719 483.371094 647.429688 483.195312 648.605469 483.042969 C 649.777344 482.890625 650.953125 482.769531 652.132812 482.675781 C 653.3125 482.585938 654.492188 482.519531 655.675781 482.484375 C 656.855469 482.449219 658.039062 482.445312 659.222656 482.46875 C 660.402344 482.492188 661.585938 482.542969 662.765625 482.625 C 663.945312 482.707031 665.121094 482.816406 666.296875 482.953125 C 667.472656 483.09375 668.640625 483.261719 669.808594 483.457031 C 670.976562 483.652344 672.136719 483.878906 673.292969 484.132812 C 674.445312 484.386719 675.59375 484.667969 676.738281 484.976562 C 677.878906 485.285156 679.011719 485.625 680.136719 485.988281 C 681.261719 486.355469 682.375 486.746094 683.480469 487.167969 C 684.585938 487.585938 685.683594 488.035156 686.765625 488.507812 C 687.851562 488.984375 688.921875 489.484375 689.980469 490.007812 C 691.039062 490.535156 692.085938 491.085938 693.117188 491.664062 C 694.148438 492.242188 695.167969 492.847656 696.167969 493.472656 C 697.171875 494.101562 698.15625 494.753906 699.128906 495.429688 C 700.097656 496.105469 701.050781 496.804688 701.988281 497.527344 C 702.925781 498.25 703.839844 498.996094 704.742188 499.765625 C 705.640625 500.535156 706.519531 501.324219 707.382812 502.132812 C 708.242188 502.945312 709.082031 503.777344 709.902344 504.628906 C 710.722656 505.484375 711.519531 506.355469 712.296875 507.246094 C 713.074219 508.136719 713.828125 509.046875 714.5625 509.976562 C 715.292969 510.90625 716.003906 511.851562 716.6875 512.816406 C 717.375 513.78125 718.035156 514.757812 718.675781 515.753906 C 719.3125 516.75 719.925781 517.761719 720.515625 518.789062 C 721.101562 519.816406 721.664062 520.855469 722.203125 521.910156 C 722.738281 522.960938 723.25 524.027344 723.734375 525.109375 C 724.21875 526.1875 724.675781 527.277344 725.109375 528.378906 C 725.539062 529.480469 725.941406 530.589844 726.320312 531.710938 C 726.695312 532.832031 727.046875 533.964844 727.367188 535.101562 C 727.6875 536.238281 727.980469 537.386719 728.246094 538.539062 C 728.511719 539.691406 728.746094 540.847656 728.957031 542.015625 C 729.164062 543.179688 729.34375 544.347656 729.492188 545.519531 C 729.644531 546.695312 729.765625 547.871094 729.859375 549.046875 C 729.953125 550.226562 730.015625 551.410156 730.050781 552.589844 C 730.085938 553.773438 730.089844 554.957031 730.066406 556.136719 C 730.046875 557.320312 729.992188 558.5 729.910156 559.683594 C 729.832031 560.863281 729.722656 562.039062 729.582031 563.214844 C 729.441406 564.386719 729.277344 565.558594 729.078125 566.726562 C 728.882812 567.890625 728.65625 569.050781 728.40625 570.207031 C 728.152344 571.363281 727.871094 572.511719 727.558594 573.652344 C 727.25 574.792969 726.914062 575.929688 726.546875 577.054688 C 726.183594 578.175781 725.789062 579.292969 725.367188 580.398438 C 724.949219 581.503906 724.5 582.597656 724.027344 583.683594 C 723.554688 584.765625 723.054688 585.839844 722.527344 586.898438 C 722 587.957031 721.449219 589 720.871094 590.035156 C 720.292969 591.066406 719.691406 592.082031 719.0625 593.085938 L 588.980469 800.777344 C 587.363281 803.363281 585.585938 805.835938 583.652344 808.199219 C 581.722656 810.558594 579.648438 812.789062 577.433594 814.890625 C 575.21875 816.988281 572.878906 818.9375 570.417969 820.742188 C 567.953125 822.542969 565.390625 824.183594 562.71875 825.660156 C 560.046875 827.136719 557.296875 828.4375 554.460938 829.566406 C 551.625 830.695312 548.730469 831.636719 545.773438 832.398438 C 542.820312 833.160156 539.828125 833.730469 536.800781 834.113281 C 533.773438 834.492188 530.734375 834.683594 527.683594 834.679688 Z M 527.683594 834.679688 " fill-opacity="1" fill-rule="nonzero"/><g clip-path="url(#9426075001)"><path fill="#8c52ff" d="M 751.804688 834.679688 C 748.59375 834.679688 745.394531 834.464844 742.210938 834.039062 C 739.027344 833.613281 735.886719 832.976562 732.789062 832.132812 C 729.6875 831.289062 726.660156 830.242188 723.699219 828.992188 C 720.738281 827.746094 717.875 826.304688 715.109375 824.675781 C 712.339844 823.042969 709.695312 821.238281 707.167969 819.253906 C 704.640625 817.269531 702.257812 815.128906 700.015625 812.828125 C 697.773438 810.527344 695.695312 808.085938 693.777344 805.507812 C 691.863281 802.929688 690.125 800.234375 688.570312 797.425781 C 687.011719 794.617188 685.648438 791.714844 684.480469 788.722656 C 683.308594 785.734375 682.34375 782.675781 681.578125 779.558594 C 680.816406 776.4375 680.265625 773.28125 679.921875 770.085938 C 679.578125 766.890625 679.449219 763.6875 679.535156 760.476562 C 679.621094 757.265625 679.917969 754.074219 680.429688 750.90625 C 680.9375 747.734375 681.65625 744.609375 682.582031 741.535156 C 683.511719 738.457031 684.636719 735.457031 685.964844 732.53125 C 687.289062 729.605469 688.804688 726.78125 690.507812 724.058594 L 820.648438 516.367188 C 821.25 515.3125 821.878906 514.273438 822.53125 513.25 C 823.1875 512.226562 823.863281 511.21875 824.570312 510.230469 C 825.273438 509.242188 826.003906 508.269531 826.753906 507.316406 C 827.507812 506.367188 828.285156 505.433594 829.085938 504.519531 C 829.886719 503.605469 830.710938 502.714844 831.554688 501.84375 C 832.398438 500.96875 833.265625 500.121094 834.15625 499.292969 C 835.042969 498.464844 835.953125 497.660156 836.878906 496.875 C 837.808594 496.09375 838.757812 495.335938 839.726562 494.601562 C 840.691406 493.867188 841.675781 493.15625 842.679688 492.472656 C 843.683594 491.789062 844.703125 491.128906 845.738281 490.496094 C 846.773438 489.859375 847.824219 489.253906 848.890625 488.671875 C 849.957031 488.09375 851.039062 487.539062 852.132812 487.015625 C 853.226562 486.488281 854.335938 485.988281 855.453125 485.519531 C 856.574219 485.050781 857.707031 484.609375 858.847656 484.195312 C 859.988281 483.78125 861.140625 483.398438 862.300781 483.042969 C 863.464844 482.6875 864.632812 482.363281 865.8125 482.066406 C 866.988281 481.769531 868.171875 481.503906 869.363281 481.265625 C 870.554688 481.03125 871.75 480.824219 872.953125 480.648438 C 874.15625 480.472656 875.359375 480.324219 876.570312 480.210938 C 877.777344 480.09375 878.988281 480.011719 880.203125 479.957031 C 881.414062 479.902344 882.628906 479.878906 883.84375 479.886719 C 885.058594 479.890625 886.269531 479.929688 887.484375 479.996094 C 888.695312 480.066406 889.90625 480.164062 891.113281 480.292969 C 892.320312 480.421875 893.523438 480.582031 894.722656 480.773438 C 895.921875 480.960938 897.117188 481.179688 898.304688 481.429688 C 899.492188 481.679688 900.675781 481.960938 901.847656 482.269531 C 903.023438 482.582031 904.1875 482.917969 905.347656 483.289062 C 906.503906 483.65625 907.652344 484.054688 908.789062 484.480469 C 909.925781 484.90625 911.050781 485.359375 912.164062 485.84375 C 913.28125 486.324219 914.378906 486.835938 915.46875 487.375 C 916.558594 487.914062 917.632812 488.476562 918.691406 489.070312 C 919.75 489.664062 920.796875 490.28125 921.824219 490.925781 C 922.855469 491.574219 923.867188 492.242188 924.859375 492.941406 C 925.855469 493.636719 926.832031 494.355469 927.792969 495.101562 C 928.75 495.847656 929.6875 496.617188 930.609375 497.410156 C 931.527344 498.203125 932.429688 499.019531 933.308594 499.855469 C 934.183594 500.695312 935.042969 501.554688 935.878906 502.433594 C 936.714844 503.316406 937.527344 504.21875 938.316406 505.140625 C 939.105469 506.0625 939.871094 507.003906 940.613281 507.964844 C 941.355469 508.925781 942.074219 509.90625 942.769531 510.902344 C 943.460938 511.898438 944.128906 512.914062 944.769531 513.945312 C 945.414062 514.976562 946.027344 516.023438 946.617188 517.085938 C 947.207031 518.144531 947.769531 519.222656 948.304688 520.3125 C 948.839844 521.402344 949.34375 522.503906 949.824219 523.621094 C 950.304688 524.738281 950.753906 525.863281 951.179688 527.003906 C 951.601562 528.140625 951.992188 529.289062 952.359375 530.449219 C 952.722656 531.605469 953.058594 532.773438 953.363281 533.949219 C 953.671875 535.125 953.945312 536.304688 954.191406 537.496094 C 954.4375 538.683594 954.65625 539.878906 954.839844 541.078125 C 955.027344 542.277344 955.183594 543.480469 955.308594 544.691406 C 955.433594 545.898438 955.527344 547.109375 955.589844 548.320312 C 955.65625 549.535156 955.691406 550.746094 955.691406 551.960938 C 955.695312 553.175781 955.667969 554.390625 955.609375 555.601562 C 955.550781 556.816406 955.464844 558.027344 955.34375 559.234375 C 955.226562 560.445312 955.074219 561.648438 954.894531 562.847656 C 954.714844 564.050781 954.507812 565.246094 954.265625 566.4375 C 954.027344 567.625 953.753906 568.808594 953.457031 569.988281 C 953.15625 571.164062 952.828125 572.332031 952.46875 573.492188 C 952.109375 574.652344 951.722656 575.804688 951.304688 576.945312 C 950.886719 578.085938 950.441406 579.214844 949.96875 580.332031 C 949.496094 581.449219 948.992188 582.554688 948.464844 583.648438 C 947.933594 584.742188 947.378906 585.820312 946.792969 586.886719 C 946.210938 587.949219 945.601562 589 944.964844 590.035156 C 944.328125 591.066406 943.664062 592.085938 942.976562 593.085938 L 813.074219 800.777344 C 811.453125 803.363281 809.679688 805.835938 807.746094 808.199219 C 805.816406 810.558594 803.742188 812.789062 801.527344 814.890625 C 799.3125 816.988281 796.972656 818.9375 794.511719 820.742188 C 792.046875 822.542969 789.480469 824.183594 786.8125 825.660156 C 784.140625 827.136719 781.386719 828.4375 778.554688 829.566406 C 775.71875 830.695312 772.824219 831.636719 769.867188 832.398438 C 766.914062 833.160156 763.921875 833.730469 760.894531 834.113281 C 757.867188 834.492188 754.828125 834.683594 751.777344 834.679688 Z M 751.804688 834.679688 " fill-opacity="1" fill-rule="nonzero"/></g><path fill="#5e17eb" d="M 1048.25 764.082031 C 1048.25 765.238281 1048.21875 766.390625 1048.160156 767.542969 C 1048.101562 768.699219 1048.015625 769.847656 1047.898438 771 C 1047.785156 772.148438 1047.636719 773.292969 1047.464844 774.4375 C 1047.289062 775.578125 1047.089844 776.714844 1046.859375 777.847656 C 1046.625 778.980469 1046.367188 780.109375 1046.078125 781.226562 C 1045.792969 782.347656 1045.476562 783.460938 1045.132812 784.566406 C 1044.789062 785.671875 1044.417969 786.769531 1044.015625 787.855469 C 1043.617188 788.941406 1043.191406 790.019531 1042.738281 791.085938 C 1042.285156 792.152344 1041.804688 793.207031 1041.300781 794.253906 C 1040.792969 795.296875 1040.261719 796.328125 1039.703125 797.347656 C 1039.144531 798.363281 1038.558594 799.371094 1037.949219 800.359375 C 1037.339844 801.351562 1036.707031 802.328125 1036.050781 803.285156 C 1035.390625 804.246094 1034.710938 805.191406 1034.003906 806.117188 C 1033.296875 807.046875 1032.570312 807.957031 1031.820312 808.847656 C 1031.066406 809.742188 1030.292969 810.617188 1029.5 811.472656 C 1028.703125 812.328125 1027.886719 813.164062 1027.046875 813.980469 C 1026.210938 814.796875 1025.351562 815.59375 1024.476562 816.367188 C 1023.597656 817.144531 1022.703125 817.898438 1021.785156 818.632812 C 1020.871094 819.363281 1019.9375 820.074219 1018.984375 820.761719 C 1018.035156 821.449219 1017.066406 822.113281 1016.082031 822.757812 C 1015.09375 823.398438 1014.09375 824.015625 1013.078125 824.609375 C 1012.0625 825.203125 1011.03125 825.773438 1009.988281 826.316406 C 1008.941406 826.859375 1007.886719 827.378906 1006.816406 827.875 C 1005.742188 828.367188 1004.660156 828.835938 1003.566406 829.277344 C 1002.472656 829.71875 1001.367188 830.132812 1000.253906 830.523438 C 999.136719 830.914062 998.011719 831.273438 996.878906 831.609375 C 995.746094 831.945312 994.605469 832.253906 993.457031 832.535156 C 992.304688 832.816406 991.152344 833.066406 989.988281 833.292969 C 988.828125 833.519531 987.660156 833.714844 986.488281 833.886719 C 985.316406 834.054688 984.140625 834.195312 982.960938 834.308594 C 981.785156 834.421875 980.601562 834.507812 979.417969 834.5625 C 978.238281 834.621094 977.054688 834.648438 975.867188 834.648438 C 974.683594 834.648438 973.5 834.621094 972.316406 834.5625 C 971.132812 834.507812 969.953125 834.421875 968.773438 834.308594 C 967.59375 834.195312 966.417969 834.054688 965.246094 833.886719 C 964.078125 833.714844 962.910156 833.519531 961.746094 833.292969 C 960.585938 833.066406 959.429688 832.816406 958.28125 832.535156 C 957.132812 832.253906 955.992188 831.945312 954.859375 831.609375 C 953.722656 831.273438 952.597656 830.914062 951.484375 830.523438 C 950.367188 830.132812 949.265625 829.71875 948.167969 829.277344 C 947.074219 828.835938 945.992188 828.367188 944.921875 827.875 C 943.851562 827.378906 942.792969 826.859375 941.75 826.316406 C 940.703125 825.773438 939.671875 825.203125 938.65625 824.609375 C 937.640625 824.015625 936.640625 823.398438 935.65625 822.757812 C 934.671875 822.113281 933.703125 821.449219 932.75 820.761719 C 931.800781 820.074219 930.867188 819.363281 929.949219 818.632812 C 929.035156 817.898438 928.136719 817.144531 927.261719 816.367188 C 926.382812 815.59375 925.527344 814.796875 924.6875 813.980469 C 923.851562 813.164062 923.035156 812.328125 922.238281 811.472656 C 921.441406 810.617188 920.667969 809.742188 919.917969 808.847656 C 919.167969 807.957031 918.4375 807.046875 917.730469 806.117188 C 917.027344 805.191406 916.34375 804.246094 915.6875 803.285156 C 915.027344 802.328125 914.394531 801.351562 913.785156 800.359375 C 913.175781 799.371094 912.59375 798.363281 912.035156 797.347656 C 911.476562 796.328125 910.945312 795.296875 910.4375 794.253906 C 909.929688 793.207031 909.453125 792.152344 908.996094 791.085938 C 908.542969 790.019531 908.117188 788.941406 907.71875 787.855469 C 907.320312 786.769531 906.949219 785.671875 906.605469 784.566406 C 906.261719 783.460938 905.945312 782.347656 905.65625 781.226562 C 905.371094 780.109375 905.109375 778.980469 904.878906 777.847656 C 904.648438 776.714844 904.445312 775.578125 904.273438 774.4375 C 904.097656 773.292969 903.953125 772.148438 903.835938 771 C 903.722656 769.847656 903.632812 768.699219 903.574219 767.542969 C 903.515625 766.390625 903.488281 765.238281 903.488281 764.082031 C 903.488281 762.925781 903.515625 761.773438 903.574219 760.617188 C 903.632812 759.464844 903.722656 758.3125 903.835938 757.164062 C 903.953125 756.015625 904.097656 754.871094 904.273438 753.726562 C 904.445312 752.585938 904.648438 751.445312 904.878906 750.316406 C 905.109375 749.183594 905.371094 748.054688 905.65625 746.933594 C 905.945312 745.816406 906.261719 744.703125 906.605469 743.597656 C 906.949219 742.492188 907.320312 741.394531 907.71875 740.308594 C 908.117188 739.21875 908.542969 738.144531 908.996094 737.078125 C 909.453125 736.007812 909.929688 734.953125 910.4375 733.910156 C 910.945312 732.867188 911.476562 731.835938 912.035156 730.816406 C 912.59375 729.796875 913.175781 728.792969 913.785156 727.800781 C 914.394531 726.8125 915.027344 725.835938 915.6875 724.875 C 916.34375 723.914062 917.027344 722.972656 917.730469 722.042969 C 918.4375 721.117188 919.167969 720.207031 919.917969 719.3125 C 920.667969 718.421875 921.441406 717.546875 922.238281 716.691406 C 923.035156 715.835938 923.851562 715 924.6875 714.183594 C 925.527344 713.367188 926.382812 712.570312 927.261719 711.792969 C 928.136719 711.019531 929.035156 710.265625 929.949219 709.53125 C 930.867188 708.800781 931.800781 708.089844 932.75 707.402344 C 933.703125 706.714844 934.671875 706.046875 935.65625 705.40625 C 936.640625 704.765625 937.640625 704.148438 938.65625 703.554688 C 939.671875 702.960938 940.703125 702.390625 941.75 701.847656 C 942.792969 701.300781 943.851562 700.78125 944.921875 700.289062 C 945.992188 699.796875 947.074219 699.328125 948.167969 698.886719 C 949.265625 698.445312 950.367188 698.027344 951.484375 697.640625 C 952.597656 697.25 953.722656 696.886719 954.859375 696.554688 C 955.992188 696.21875 957.132812 695.910156 958.28125 695.628906 C 959.429688 695.347656 960.585938 695.09375 961.746094 694.871094 C 962.910156 694.644531 964.078125 694.449219 965.25 694.277344 C 966.417969 694.109375 967.59375 693.96875 968.773438 693.855469 C 969.953125 693.742188 971.132812 693.65625 972.316406 693.597656 C 973.5 693.542969 974.683594 693.515625 975.867188 693.515625 C 977.054688 693.515625 978.238281 693.542969 979.417969 693.597656 C 980.601562 693.65625 981.785156 693.742188 982.960938 693.855469 C 984.140625 693.96875 985.316406 694.109375 986.488281 694.277344 C 987.660156 694.449219 988.828125 694.644531 989.988281 694.871094 C 991.152344 695.09375 992.304688 695.347656 993.457031 695.628906 C 994.605469 695.910156 995.746094 696.21875 996.878906 696.550781 C 998.011719 696.886719 999.136719 697.25 1000.253906 697.640625 C 1001.367188 698.027344 1002.472656 698.445312 1003.566406 698.886719 C 1004.660156 699.328125 1005.742188 699.796875 1006.816406 700.289062 C 1007.886719 700.78125 1008.941406 701.300781 1009.988281 701.847656 C 1011.03125 702.390625 1012.0625 702.960938 1013.078125 703.554688 C 1014.09375 704.148438 1015.09375 704.765625 1016.082031 705.40625 C 1017.066406 706.046875 1018.035156 706.714844 1018.984375 707.402344 C 1019.9375 708.089844 1020.871094 708.800781 1021.785156 709.53125 C 1022.703125 710.265625 1023.597656 711.019531 1024.476562 711.792969 C 1025.351562 712.570312 1026.210938 713.367188 1027.046875 714.183594 C 1027.886719 715 1028.703125 715.835938 1029.5 716.691406 C 1030.292969 717.546875 1031.066406 718.421875 1031.820312 719.3125 C 1032.570312 720.207031 1033.296875 721.117188 1034.003906 722.042969 C 1034.710938 722.972656 1035.390625 723.914062 1036.050781 724.875 C 1036.707031 725.835938 1037.339844 726.8125 1037.949219 727.800781 C 1038.558594 728.792969 1039.144531 729.796875 1039.703125 730.816406 C 1040.261719 731.835938 1040.792969 732.867188 1041.300781 733.910156 C 1041.804688 734.953125 1042.285156 736.007812 1042.738281 737.078125 C 1043.191406 738.144531 1043.617188 739.21875 1044.015625 740.308594 C 1044.417969 741.394531 1044.789062 742.492188 1045.132812 743.597656 C 1045.476562 744.703125 1045.792969 745.816406 1046.078125 746.933594 C 1046.367188 748.054688 1046.625 749.183594 1046.859375 750.316406 C 1047.089844 751.445312 1047.289062 752.585938 1047.464844 753.726562 C 1047.636719 754.871094 1047.785156 756.015625 1047.898438 757.164062 C 1048.015625 758.3125 1048.101562 759.464844 1048.160156 760.617188 C 1048.21875 761.773438 1048.25 762.925781 1048.25 764.082031 Z M 1048.25 764.082031 " fill-opacity="1" fill-rule="nonzero"/><g transform="matrix(1, 0, 0, 1, 593, 839)"><g clip-path="url(#60be0f059a)"><g fill="#f9f9f9" fill-opacity="1"><g transform="translate(0.327356, 144.322376)"><g><path d="M 65.25 0 L 32.40625 -43.125 L 32.40625 0 L 8.625 0 L 8.625 -97.65625 L 32.40625 -97.65625 L 32.40625 -54.8125 L 64.96875 -97.65625 L 92.921875 -97.65625 L 55.09375 -49.796875 L 94.3125 0 Z M 65.25 0 "/></g></g></g><g fill="#f9f9f9" fill-opacity="1"><g transform="translate(97.264665, 144.322376)"><g/></g></g><g fill="#f9f9f9" fill-opacity="1"><g transform="translate(126.749175, 144.322376)"><g><path d="M 32.40625 -97.65625 L 32.40625 0 L 8.625 0 L 8.625 -97.65625 Z M 32.40625 -97.65625 "/></g></g></g><g fill="#f9f9f9" fill-opacity="1"><g transform="translate(167.777156, 144.322376)"><g/></g></g><g fill="#f9f9f9" fill-opacity="1"><g transform="translate(197.261666, 144.322376)"><g><path d="M 83.046875 -66.21875 C 83.046875 -60.5625 81.75 -55.390625 79.15625 -50.703125 C 76.5625 -46.023438 72.570312 -42.25 67.1875 -39.375 C 61.8125 -36.5 55.132812 -35.0625 47.15625 -35.0625 L 32.40625 -35.0625 L 32.40625 0 L 8.625 0 L 8.625 -97.65625 L 47.15625 -97.65625 C 54.945312 -97.65625 61.53125 -96.3125 66.90625 -93.625 C 72.289062 -90.9375 76.328125 -87.222656 79.015625 -82.484375 C 81.703125 -77.753906 83.046875 -72.332031 83.046875 -66.21875 Z M 45.34375 -53.96875 C 49.894531 -53.96875 53.28125 -55.035156 55.5 -57.171875 C 57.726562 -59.304688 58.84375 -62.320312 58.84375 -66.21875 C 58.84375 -70.113281 57.726562 -73.125 55.5 -75.25 C 53.28125 -77.382812 49.894531 -78.453125 45.34375 -78.453125 L 32.40625 -78.453125 L 32.40625 -53.96875 Z M 45.34375 -53.96875 "/></g></g></g><g fill="#f9f9f9" fill-opacity="1"><g transform="translate(284.061707, 144.322376)"><g/></g></g></g></g></svg>